<svg width="221" height="30" viewBox="0 0 221 30" fill="none" xmlns="http://www.w3.org/2000/svg">
<path d="M37.9152 26.971C46.0372 26.8707 52.1239 26.3001 58.3402 24.6261C66.0474 22.8205 70.896 19.4412 69.9367 15.9177C68.7958 11.6982 58.5736 8.28758 48.3773 8.85184C39.7431 9.3346 33.4685 11.7547 33.1833 14.8957L31.8869 14.2186C26.5716 11.0462 36.6447 6.18727 50.2571 6.06815C64.6473 5.95529 76.5549 10.576 76.1206 16.7703C75.7057 22.5697 66.553 28.0556 53.7315 29.9866C67.3438 28.275 77.8254 22.5446 77.5466 16.4443C77.229 9.46626 65.1853 5.37849 50.0626 4.59479L43.1722 4.63868C30.921 5.41611 21.1331 9.25937 21.1914 14.0431C21.2498 18.8268 31.1998 22.181 43.3926 22.2625C53.1157 22.3315 61.6396 19.5917 63.9407 15.8989C63.9407 15.8989 65.4187 16.8644 65.3992 17.7421C65.3344 20.6199 58.9171 23.3848 50.8988 24.7954C47.981 25.2965 45.0313 25.6044 42.0702 25.717C21.3276 26.2876 4.29914 20.5948 4.12412 13.5352C3.97503 6.85184 20.634 0.851844 39.8274 0.0430662L39.1144 0.0117188C18.3004 0.237424 -0.192942 6.75153 0.00151997 14.1308C0.195982 21.5102 17.1855 27.2468 37.9152 26.971Z" fill="#ce153d"/>
<path d="M103.043 14.9653C101.637 22.5766 100.567 26.0374 91.7905 26.0374C85.4575 26.0374 83.5518 23.5797 83.5518 19.9496C83.5684 18.2773 83.7354 16.6096 84.0509 14.9653C85.4575 7.34148 86.5011 3.94336 95.2713 3.94336C101.54 3.94336 103.517 6.4512 103.517 9.90574C103.518 11.6026 103.359 13.2961 103.043 14.9653ZM94.7722 8.21922C90.8506 8.21922 90.0144 9.38537 88.9773 14.9841C88.7018 16.288 88.5328 17.6107 88.4717 18.9402C88.4717 21.1785 89.5477 21.7615 92.2896 21.7615C96.2177 21.7615 97.0798 20.5954 98.1235 14.9841C98.3883 13.6712 98.5444 12.3399 98.5902 11.0029C98.5902 8.77095 97.4817 8.21922 94.7722 8.21922Z" fill="#052946"/>
<path d="M120.85 25.749H116.448L116.708 24.307C115.774 25.0969 114.653 26.0374 111.444 26.0374C107.859 26.0374 105.169 24.6643 105.169 20.8775C105.24 19.6265 105.416 18.3831 105.694 17.1596L107.373 7.98096H112.637L111.088 16.6455C110.859 17.6594 110.71 18.6884 110.64 19.7239C110.64 20.9089 111.289 21.5233 112.993 21.5233C116.766 21.5233 116.883 18.633 117.466 15.5672L118.866 7.98096H124.13L120.85 25.749Z" fill="#052946"/>
<path d="M141.943 13.912H137.055C137.087 13.7679 137.1 13.6204 137.094 13.4731C137.094 12.6832 136.718 12.2192 135.409 12.2192C132.245 12.2192 131.902 14.3133 131.344 17.3415L129.815 25.749H124.551L127.792 7.98725H132.194L131.934 9.42926C132.537 8.95904 133.769 7.69885 136.971 7.69885C140.335 7.69885 142.124 9.36029 142.124 12.0876C142.128 12.7066 142.065 13.3244 141.936 13.9308" fill="#052946"/>
<path d="M159.794 15.1032L157.888 25.7615H153.351L153.61 24.3195C151.935 25.5059 149.897 26.1151 147.822 26.0499C144.133 26.0499 141.592 24.5327 141.592 21.0343C141.552 20.2137 141.684 19.3938 141.979 18.6235C142.274 17.8533 142.727 17.1486 143.31 16.5515C145.397 14.5327 149.06 14.4951 151.782 14.4951H154.92C155.052 14.0556 155.134 13.6037 155.166 13.1471C155.166 12.1001 154.712 11.5296 152.029 11.5296C150.791 11.5296 148.969 11.7051 148.703 13.0405H143.628C144.451 8.65183 148.107 7.69885 152.657 7.69885C157.208 7.69885 160.131 9.14086 160.131 12.6079C160.083 13.4492 159.982 14.2867 159.827 15.1158L159.794 15.1032ZM150.946 18.2506C149.079 18.2506 146.882 18.2506 146.882 20.5578C146.882 21.4606 147.53 22.1816 149.527 22.1816C153.448 22.1816 153.928 20.1252 154.265 18.2506H150.946Z" fill="#052946"/>
<path d="M179.882 16.5828L178.249 25.7427H172.979L174.547 17.0844C174.751 16.1308 174.89 15.1653 174.962 14.1941C174.962 12.8963 174.476 12.2129 172.648 12.2129C168.876 12.2129 168.726 15.1345 168.169 18.1628L166.788 25.7427H161.525L164.766 7.98721H169.174L168.908 9.42922C169.841 8.63925 171.002 7.69881 174.249 7.69881C176.751 7.69881 178.171 8.20665 179.176 9.17844C180.065 10.1489 180.521 11.4199 180.446 12.7145C180.381 14.0161 180.203 15.3101 179.914 16.5828" fill="#052946"/>
<path d="M197.773 24.1252C195.828 25.6424 193.481 26.006 190.493 26.006C187.505 26.006 185.308 25.5734 183.894 24.0562C182.93 22.923 182.448 21.477 182.546 20.0123C182.546 16.9089 183.48 11.5296 185.982 9.57971C187.926 8.06247 190.305 7.66748 193.294 7.66748C196.282 7.66748 198.447 8.10008 199.86 9.61733C200.821 10.7396 201.316 12.1678 201.247 13.6236C201.247 16.7584 200.314 22.1377 197.773 24.0938V24.1252ZM192.762 12.1377C191.31 12.1377 190.377 12.4324 189.702 13.0405C188.542 14.1252 187.907 17.6612 187.907 19.3101C187.907 20.959 188.73 21.6236 191.083 21.6236C192.503 21.6236 193.43 21.3665 194.104 20.7897C195.335 19.7114 195.932 16.2443 195.932 14.5828C195.932 12.8148 195.154 12.1628 192.762 12.1628" fill="#052946"/>
<path d="M220.402 13.5421H215.553C215.569 13.3857 215.569 13.2283 215.553 13.0719C215.553 11.7051 214.023 11.5296 212.753 11.5296C211.482 11.5296 209.434 11.6362 209.434 13.586C209.434 14.8838 210.893 14.8399 213.019 15.028C216.603 15.3164 219.397 15.655 219.397 19.0719C219.397 20.8399 218.878 22.934 217.576 24.1942C216.039 25.6424 213.654 26.0374 210.478 26.0374C206.673 26.0374 202.868 25.3101 202.868 21.5609C202.869 21.0995 202.919 20.6395 203.017 20.1879H207.833C207.802 20.3067 207.789 20.4291 207.794 20.5515C207.794 21.9998 209.395 22.2067 210.776 22.2067C212.267 22.2067 214.017 21.9559 214.017 20.2192C214.017 18.9967 212.565 19.0343 210.918 18.9214C207.152 18.633 204.132 18.2945 204.132 14.771C204.132 12.8901 204.611 11.0092 205.992 9.6487C207.561 8.13772 210.141 7.69885 212.934 7.69885C216.668 7.69885 220.473 8.60167 220.473 12.3572C220.466 12.7542 220.429 13.1503 220.363 13.5421" fill="#052946"/>
</svg>
